<?xml version="1.0" encoding="UTF-8" standalone="no"?>
<svg width="321px" height="74px" viewBox="0 0 321 74" version="1.1" xmlns="http://www.w3.org/2000/svg" xmlns:xlink="http://www.w3.org/1999/xlink" xmlns:sketch="http://www.bohemiancoding.com/sketch/ns">
    <!-- Generator: Sketch 3.5.2 (25235) - http://www.bohemiancoding.com/sketch -->
    <title>logo</title>
    <desc>Created with Sketch.</desc>
    <defs></defs>
    <g id="logos" stroke="none" stroke-width="1" fill="none" fill-rule="evenodd" sketch:type="MSPage">
        <g id="logo" sketch:type="MSLayerGroup">
            <path d="M179.71,37.81 L179.71,23.59 L172.69,23.59 L172.69,12.97 L156.67,13.69 C156.67,13.69 156.58,23.5 156.22,23.5 L152.8,23.5 L152.8,37.81 L156.4,37.81 L156.4,59.86 C156.4,70.39 162.97,73.63 169.36,73.63 C173.23,73.63 177.19,73.27 179.17,72.73 L179.17,59.68 C178.09,59.95 176.92,60.04 175.57,60.04 C173.95,60.04 173.14,59.41 173.14,57.16 L173.14,37.81 L179.71,37.81 Z" id="Path" fill="#AAAAAA" sketch:type="MSShapeGroup"></path>
            <path d="M39.31,73 L39.31,56.53 L18.97,56.53 L18.97,1.18 L0.25,1.18 L0.25,73 L39.31,73 Z M60.91,55.27 L69.01,55.27 L71.26,73 L89.8,73 L78.64,1.18 L52.45,1.18 L40.21,73 L58.48,73 L60.91,55.27 Z M67.48,41.95 L62.35,41.95 C62.35,41.95 63.88,32.23 64.15,30.43 C64.87,25.93 64.96,21.16 64.96,21.16 C64.96,21.16 65.14,26.02 65.86,30.43 C66.13,32.14 67.48,41.95 67.48,41.95 L67.48,41.95 Z M134.26,1.18 L115.54,1.18 C115.54,1.18 108.7,22.06 108.52,25.84 C108.25,22.15 102.31,1.18 102.31,1.18 L83.59,1.18 L99.25,46 L99.25,73 L117.79,73 L117.79,45.55 L134.26,1.18 Z M205.09,0.46 C190.24,0.46 184.93,7.57 182.86,17.02 C182.05,20.98 181.78,26.74 181.78,36.91 C181.78,45.82 181.78,53.29 183.22,58.96 C185.65,69.04 191.86,73.99 205.09,73.99 C217.6,73.99 224.08,69.94 226.87,59.14 C228.31,53.47 228.58,46 228.58,36.28 C228.58,24.94 228.04,19.09 227.41,15.94 C225.7,6.85 218.68,0.46 205.09,0.46 L205.09,0.46 Z M205.27,58.42 C202.75,58.42 201.58,56.71 201.22,54.64 C200.68,51.31 200.32,45.91 200.32,37.18 C200.32,32.32 200.59,22.78 201.04,20.35 C201.58,17.65 202.48,16.21 205.27,16.21 C207.97,16.21 208.96,17.56 209.5,20.26 C210.04,22.87 210.13,32.41 210.13,37.18 C210.13,45.73 209.86,50.68 209.23,54.55 C208.87,56.53 207.61,58.42 205.27,58.42 L205.27,58.42 Z M276.19,53.92 L276.19,1.18 L257.92,1.18 L257.92,53.92 C257.92,56.89 256.48,58.42 253.87,58.42 C251.17,58.42 249.73,56.98 249.73,53.83 L249.73,1.18 L231.55,1.18 L231.55,53.65 C231.55,67.69 241.27,73.81 254.14,73.81 C267.55,73.81 276.19,66.88 276.19,53.92 L276.19,53.92 Z M320.11,17.83 L320.11,1.18 L278.44,1.18 L278.44,17.83 L289.96,17.83 L289.96,73 L308.5,73 L308.5,17.83 L320.11,17.83 Z" id="LAYitOUT" fill="#474747" sketch:type="MSShapeGroup"></path>
            <path d="M150.73,21.43 L150.73,6.49 L133.45,6.49 L133.45,21.43 L150.73,21.43 Z" id="Path" fill="#AAAAAA" sketch:type="MSShapeGroup"></path>
            <path d="M150.64,69.67 L150.64,23.5 L133.54,23.5 L133.54,69.58 C133.54,72.37 133.63,73 134.17,73 L150.91,73 C150.64,72.82 150.64,72.28 150.64,69.67 L150.64,69.67 Z" id="Path" fill="#AAAAAA" sketch:type="MSShapeGroup"></path>
        </g>
    </g>
</svg>